<svg width="218" height="194" viewBox="0 0 218 194" fill="none" xmlns="http://www.w3.org/2000/svg">
<g id="Character">
<path id="Vector" d="M29.3837 164.213C29.3837 164.213 25.5512 161.983 24.7607 161.185C23.9702 160.387 17.4274 152.892 15.8322 153.372C14.2371 153.852 12.1621 157.36 10.4117 160.387C8.66125 163.415 3.23358 169.789 1.8008 174.094C0.368007 178.4 2.43602 177.764 3.21241 177.122C6.83893 174.714 10.6104 172.531 14.5053 170.586C16.1631 169.795 17.8672 169.104 19.6083 168.518L25.8265 171.229L29.3837 164.213Z" fill="white"/>
<path id="Vector_2" d="M2.10381 177.934C1.8806 177.938 1.6614 177.874 1.47564 177.75C0.769837 177.271 0.769837 176.035 1.47564 173.981C2.4426 171.074 5.20231 167.241 7.41149 164.157C8.54784 162.576 9.5289 161.213 10.1077 160.211C12.2251 156.576 14.0884 153.527 15.7541 153.033C16.8693 152.694 19.3537 154.769 24.3367 160.183C24.6685 160.55 24.9155 160.818 25.0425 160.931C26.492 162.024 28.0129 163.019 29.595 163.91C29.6721 163.954 29.7291 164.027 29.7541 164.112C29.779 164.198 29.7701 164.289 29.7291 164.368L26.2001 171.384C26.1604 171.464 26.0912 171.526 26.007 171.556C25.9227 171.587 25.83 171.583 25.7484 171.546L19.6502 168.893C17.969 169.478 16.3198 170.152 14.7095 170.911C10.8331 172.834 7.0825 175 3.48013 177.398C3.09278 177.723 2.60907 177.911 2.10381 177.934ZM16.0364 153.718C16.0016 153.71 15.9654 153.71 15.9306 153.718C14.4201 154.169 12.1898 158.023 10.7147 160.571C10.1147 161.602 9.1266 162.978 7.98319 164.573C5.79519 167.615 3.04254 171.405 2.1391 174.214C1.32743 176.642 1.77914 177.108 1.87795 177.179C2.11087 177.341 2.65434 177.143 3.0143 176.854C6.6727 174.429 10.4772 172.232 14.406 170.276C16.0763 169.466 17.7946 168.759 19.5514 168.159C19.6306 168.127 19.7191 168.127 19.7984 168.159L25.706 170.735L28.9174 164.312C27.3783 163.448 25.904 162.474 24.5061 161.397C24.3861 161.277 24.132 161.002 23.8003 160.628C18.5632 154.981 16.6717 153.718 16.0364 153.718Z" fill="#263238"/>
<path id="Vector_3" d="M22.8339 159.117C20.547 156.668 16.9545 153.033 15.8322 153.372C14.2371 153.852 12.1621 157.36 10.4117 160.387C8.66125 163.415 3.23358 169.789 1.8008 174.094C0.368007 178.4 2.43602 177.764 3.21241 177.122C6.83893 174.714 10.6104 172.531 14.5053 170.586C16.0016 169.881 17.145 169.436 17.9708 169.111L14.9853 166.126C14.9853 166.126 19.4672 161.27 22.8339 159.117Z" fill="white"/>
<path id="Vector_4" d="M2.10381 177.934C1.8806 177.938 1.6614 177.874 1.47564 177.75C0.769837 177.27 0.769837 176.035 1.47564 173.981C2.4426 171.073 5.20231 167.241 7.41149 164.157C8.54784 162.576 9.5289 161.213 10.1077 160.211C12.2251 156.576 14.0884 153.527 15.7541 153.033C16.4599 152.821 17.8715 153.301 23.1227 158.877C23.1585 158.914 23.1853 158.959 23.2012 159.008C23.2171 159.057 23.2216 159.108 23.2145 159.159C23.2084 159.211 23.1906 159.261 23.1625 159.305C23.1344 159.349 23.0967 159.386 23.0522 159.414C20.1936 161.242 16.5023 165.102 15.5494 166.112L18.295 168.857C18.3359 168.9 18.3662 168.951 18.3834 169.008C18.4005 169.064 18.4041 169.124 18.3938 169.182C18.3819 169.239 18.3556 169.293 18.3173 169.337C18.279 169.382 18.2301 169.416 18.175 169.436C17.1657 169.838 16.0012 170.332 14.7307 170.911C10.8471 172.833 7.08934 175 3.48013 177.397C3.09278 177.723 2.60907 177.911 2.10381 177.934ZM16.0082 153.718H15.9306C14.4201 154.169 12.1898 158.023 10.7147 160.571C10.1147 161.602 9.1266 162.978 7.98319 164.573C5.79519 167.615 3.04254 171.405 2.1391 174.214C1.32743 176.642 1.77914 177.108 1.87795 177.179C2.11087 177.341 2.65434 177.143 3.0143 176.854C6.6727 174.429 10.4772 172.232 14.406 170.276C15.493 169.782 16.4882 169.351 17.3916 168.984L14.7801 166.38C14.7191 166.313 14.6852 166.227 14.6852 166.136C14.6852 166.046 14.7191 165.959 14.7801 165.893C14.9566 165.702 19.015 161.298 22.297 159.061C17.7516 154.24 16.3893 153.718 16.0082 153.718Z" fill="#263238"/>
<path id="Vector_5" d="M17.7791 154.275L17.532 154.092H17.4826L17.1156 153.845L17.0238 153.788L16.7556 153.633L16.678 153.591L16.3745 153.464H16.318C16.2502 153.437 16.1789 153.421 16.1063 153.414H16.0428C15.9729 153.4 15.9009 153.4 15.831 153.414C14.2359 153.894 12.1608 157.402 10.4104 160.43C8.66004 163.458 3.23237 169.831 1.79958 174.137C1.18553 175.993 1.21377 176.925 1.51726 177.341C2.92888 173.007 7.82718 166.634 12.0056 161.545C15.0405 157.804 16.8262 155.525 17.7791 154.275Z" fill="white"/>
<path id="Vector_6" d="M1.51712 177.651C1.46162 177.651 1.407 177.638 1.35786 177.612C1.30872 177.586 1.26652 177.549 1.2348 177.503C0.797203 176.903 0.874833 175.753 1.46771 173.974C2.43467 171.066 5.19438 167.234 7.40355 164.149C8.5399 162.568 9.52098 161.206 10.0997 160.204C12.2172 156.569 14.0805 153.52 15.7462 153.026C15.8604 153.003 15.9778 153.003 16.092 153.026H16.1838L16.4449 153.089C16.5851 153.134 16.7219 153.188 16.8543 153.252L16.9249 153.294L17.2284 153.463L17.3272 153.527L17.7083 153.781L17.9765 153.979C18.0569 154.042 18.1119 154.132 18.1318 154.233C18.1516 154.328 18.1339 154.426 18.0824 154.508C17.1084 155.771 15.3227 158.037 12.2948 161.736C8.4905 166.38 3.26752 173.028 1.87708 177.419C1.85689 177.481 1.81981 177.536 1.76995 177.579C1.7201 177.621 1.65944 177.649 1.59476 177.659L1.51712 177.651ZM15.965 153.718H15.9297C14.4193 154.169 12.1889 158.023 10.7138 160.571C10.1139 161.601 9.12573 162.978 7.98232 164.573C5.79432 167.615 3.04167 171.405 2.13824 174.214C1.96057 174.723 1.82137 175.244 1.7218 175.774C3.60631 171.462 7.98938 165.843 11.7302 161.284C14.5534 157.868 16.2756 155.637 17.2778 154.353C17.1366 154.247 17.0308 154.176 16.9319 154.113L16.8402 154.063C16.7617 154.01 16.6791 153.963 16.5932 153.922L16.6708 153.562L16.5155 153.88L16.2614 153.767L16.0638 153.718H15.965Z" fill="#263238"/>
<path id="Vector_7" d="M201.29 177.009C201.29 177.009 209.421 171.751 211.489 169.994C213.557 168.236 216.275 166.331 216.91 167.608C217.545 168.886 217.072 172.704 214.842 177.645C212.612 182.585 206.866 189.601 206.372 190.243C205.878 190.886 205.412 192.791 203.02 192.954C200.627 193.116 195.849 187.371 195.849 187.371L201.29 177.009Z" fill="white"/>
<path id="Vector_8" d="M202.948 193.292C200.428 193.292 196.088 188.175 195.594 187.582C195.549 187.529 195.521 187.464 195.514 187.395C195.506 187.326 195.519 187.256 195.551 187.194L200.972 176.833C201.001 176.777 201.045 176.731 201.099 176.699C201.176 176.649 209.23 171.434 211.262 169.711C215.003 166.549 216.111 166.775 216.471 166.853C216.634 166.882 216.788 166.95 216.919 167.051C217.051 167.151 217.156 167.282 217.227 167.432C217.883 168.751 217.523 172.549 215.159 177.779C213.832 180.722 211.086 184.837 206.999 190.017L206.675 190.441C206.576 190.584 206.487 190.732 206.407 190.886C206.134 191.561 205.675 192.145 205.085 192.571C204.494 192.997 203.795 193.247 203.068 193.292H202.948ZM196.292 187.314C197.704 188.98 201.233 192.714 203.019 192.587C203.626 192.548 204.209 192.335 204.7 191.975C205.19 191.615 205.567 191.122 205.785 190.554C205.88 190.367 205.988 190.188 206.11 190.017L206.449 189.58C210.493 184.449 213.211 180.404 214.516 177.489C216.634 172.746 217.184 168.928 216.598 167.749C216.575 167.695 216.538 167.648 216.491 167.612C216.444 167.576 216.389 167.553 216.33 167.545C215.991 167.474 214.855 167.594 211.721 170.248C209.738 171.928 202.447 176.664 201.558 177.242L196.292 187.314Z" fill="#263238"/>
<path id="Vector_9" d="M203.04 192.939C205.433 192.777 205.913 190.864 206.393 190.229C206.873 189.594 212.604 182.578 214.863 177.63C217.121 172.683 217.573 168.864 216.931 167.594C216.878 167.48 216.796 167.381 216.693 167.31C216.59 167.238 216.47 167.194 216.345 167.184C215.951 170.078 215.177 172.906 214.044 175.598C212.392 179.67 206.111 188.062 202.377 192.876C202.593 192.936 202.817 192.958 203.04 192.939Z" fill="white"/>
<path id="Vector_10" d="M202.964 193.292C202.724 193.291 202.486 193.253 202.258 193.179C202.201 193.166 202.148 193.138 202.105 193.098C202.062 193.059 202.03 193.009 202.011 192.954C201.993 192.899 201.989 192.841 201.999 192.784C202.009 192.728 202.032 192.674 202.067 192.629C205.702 187.942 212.047 179.48 213.685 175.428C214.81 172.774 215.581 169.984 215.979 167.128C215.983 167.082 215.997 167.037 216.02 166.997C216.043 166.957 216.075 166.922 216.113 166.895C216.149 166.866 216.191 166.845 216.236 166.833C216.281 166.821 216.328 166.818 216.374 166.825C216.555 166.842 216.729 166.905 216.879 167.009C217.028 167.113 217.149 167.254 217.228 167.417C217.884 168.737 217.525 172.535 215.16 177.765C213.826 180.715 211.08 184.823 207.001 190.01C206.839 190.215 206.726 190.356 206.676 190.427C206.578 190.57 206.488 190.718 206.408 190.871C206.135 191.547 205.677 192.131 205.086 192.557C204.496 192.983 203.796 193.233 203.07 193.278L202.964 193.292ZM216.635 167.77C216.211 170.493 215.459 173.154 214.398 175.697C212.781 179.684 206.754 187.794 203.048 192.587C203.656 192.548 204.24 192.337 204.73 191.976C205.221 191.616 205.597 191.122 205.815 190.554C205.91 190.367 206.018 190.188 206.14 190.017C206.189 189.947 206.302 189.799 206.472 189.587C210.523 184.456 213.24 180.411 214.546 177.489C216.635 172.775 217.179 168.977 216.635 167.77Z" fill="#263238"/>
<path id="Vector_11" d="M66.8399 113.713C65.1129 116.078 64.2779 118.978 64.4825 121.9C64.8495 126.742 75.0272 135.797 75.0272 135.797C75.0272 135.797 79.1209 129.593 83.0946 126.368C87.0683 123.142 93.3924 120.658 93.3924 120.658L122.429 130.214C122.429 130.214 133.969 122.895 135.953 115.576C137.936 108.257 133.221 91.7479 130.737 87.9012C129.242 85.5794 127.954 83.1302 126.89 80.582L87.1883 86.0379C87.1883 86.0379 88.0564 91.8749 82.2477 98.4531C76.4389 105.031 66.8399 113.713 66.8399 113.713Z" fill="#263238"/>
<path id="Vector_12" d="M75.027 136.15C74.9805 136.155 74.9335 136.151 74.8886 136.137C74.8438 136.124 74.8021 136.102 74.7659 136.072C74.3424 135.698 64.4752 126.862 64.1011 121.956C63.8686 118.932 64.733 115.925 66.5361 113.487C66.5361 113.487 66.5361 113.487 66.5714 113.451C66.6067 113.416 76.1775 104.699 81.9298 98.2129C87.5762 91.8606 86.814 86.1506 86.8069 86.0942C86.7945 85.999 86.8198 85.9027 86.8775 85.826C86.9358 85.754 87.0188 85.7062 87.1104 85.6919L126.819 80.2289C126.898 80.2191 126.977 80.236 127.045 80.277C127.113 80.318 127.165 80.3806 127.193 80.4548C128.249 82.9801 129.524 85.408 131.005 87.7105C133.538 91.6348 138.246 108.348 136.263 115.668C134.28 122.987 123.064 130.214 122.584 130.489C122.541 130.517 122.492 130.535 122.441 130.542C122.389 130.55 122.337 130.546 122.288 130.532L93.3497 121.018C92.4745 121.37 86.8493 123.707 83.2638 126.622C79.3818 129.777 75.3093 135.91 75.274 135.974C75.2452 136.016 75.2076 136.052 75.1638 136.079C75.12 136.106 75.0709 136.123 75.0199 136.129L75.027 136.15ZM67.0937 113.952C65.4452 116.251 64.6445 119.049 64.8281 121.872C65.1528 126.057 73.2978 133.722 74.9635 135.282C75.8881 133.927 79.3889 128.93 82.8685 126.106C86.8352 122.888 93.1945 120.368 93.2651 120.347C93.3401 120.319 93.4229 120.319 93.498 120.347L122.373 129.847C123.685 128.993 133.8 122.175 135.613 115.505C137.554 108.348 132.924 91.9665 130.44 88.1128C128.989 85.8471 127.728 83.4651 126.671 80.9912L87.5692 86.3624C87.668 87.774 87.6115 92.9264 82.4874 98.707C76.8409 105.017 67.609 113.487 67.0937 113.952Z" fill="#263238"/>
<path id="Vector_13" d="M88.2122 120.615C88.2122 120.615 85.022 133.044 85.8196 137.985C86.2997 140.97 87.3262 143.842 88.8475 146.455L81.8741 173.911L28.1057 162.787L24.5767 172.993C24.5767 172.993 58.5825 181.399 71.3364 185.387C84.0903 189.375 91.099 192.078 92.3765 191.605C93.3517 191.151 94.2273 190.508 94.9527 189.714L110.692 151.6L147.966 154.205C147.966 154.205 159.259 163.924 168.053 170.438C176.848 176.953 196.024 189.311 196.024 189.311C196.913 188.825 197.696 188.165 198.326 187.371C198.957 186.577 199.422 185.665 199.694 184.688C200.364 182.159 200.897 179.596 201.29 177.009C200.379 176.094 199.362 175.291 198.262 174.617C196.984 173.981 195.234 174.461 194.112 174.144C192.989 173.826 167.891 149.532 165.025 146.822C162.16 144.112 158.489 137.731 154.346 136.136C150.203 134.541 122.006 127.666 122.006 127.666L121.533 123.523L88.2122 120.615Z" fill="#263238"/>
<path id="Vector_14" d="M92.0106 191.994C90.6907 191.994 87.691 191.034 81.607 189.036C78.7837 188.119 75.2547 186.968 71.2528 185.712C58.6541 181.774 24.853 173.403 24.5142 173.325C24.4189 173.298 24.3378 173.235 24.2884 173.149C24.2676 173.104 24.2568 173.056 24.2568 173.007C24.2568 172.959 24.2676 172.91 24.2884 172.866L27.8174 162.66C27.8449 162.58 27.9012 162.512 27.9754 162.471C28.0496 162.429 28.1366 162.416 28.2197 162.434L81.6211 173.48L88.4745 146.497C86.9711 143.879 85.9548 141.009 85.4748 138.028C84.6772 133.087 87.7404 121.025 87.8745 120.51C87.8944 120.429 87.9424 120.359 88.0097 120.311C88.077 120.263 88.1593 120.241 88.2416 120.248L121.563 123.114C121.643 123.123 121.718 123.158 121.775 123.214C121.833 123.271 121.87 123.345 121.88 123.425L122.332 127.328C125.254 128.033 150.508 134.259 154.475 135.797C157.333 136.898 159.916 140.131 162.196 142.989C163.145 144.228 164.171 145.407 165.266 146.519L169.24 150.33C176.383 157.183 193.103 173.24 194.233 173.763C194.734 173.865 195.247 173.9 195.757 173.869C196.663 173.788 197.575 173.923 198.418 174.264C199.559 174.946 200.607 175.771 201.538 176.72C201.577 176.758 201.606 176.805 201.623 176.856C201.641 176.908 201.645 176.963 201.637 177.016C201.246 179.63 200.711 182.219 200.034 184.773C199.751 185.798 199.264 186.756 198.602 187.588C197.94 188.42 197.116 189.109 196.181 189.615C196.128 189.646 196.069 189.663 196.008 189.663C195.947 189.663 195.887 189.646 195.835 189.615C195.644 189.495 176.517 177.2 167.842 170.728C159.577 164.566 148.913 155.461 147.826 154.529L110.919 151.96L95.2785 189.862C95.2641 189.899 95.2425 189.933 95.2149 189.961C94.4636 190.804 93.5487 191.486 92.5258 191.965C92.357 192.005 92.1826 192.014 92.0106 191.994ZM25.0577 172.732C28.8126 173.664 59.5646 181.315 71.4645 185.034C75.4947 186.291 79.0025 187.448 81.8328 188.366C87.4793 190.208 91.5165 191.542 92.2788 191.26C93.1782 190.828 93.9841 190.224 94.6503 189.481L110.362 151.403C110.39 151.334 110.439 151.275 110.502 151.236C110.566 151.197 110.64 151.178 110.714 151.184L147.995 153.788C148.07 153.795 148.142 153.825 148.2 153.873C148.313 153.972 159.606 163.663 168.266 170.107C176.482 176.233 194.099 187.597 196.047 188.853C197.659 187.89 198.843 186.347 199.357 184.54C200.012 182.096 200.53 179.617 200.91 177.115C200.064 176.267 199.115 175.527 198.086 174.913C197.342 174.632 196.543 174.524 195.75 174.596C195.166 174.63 194.579 174.585 194.007 174.461C193.301 174.257 186.441 167.855 168.739 150.859C166.784 148.975 165.337 147.591 164.765 147.055C163.647 145.912 162.6 144.7 161.631 143.427C159.408 140.639 156.888 137.477 154.206 136.447C150.127 134.88 122.191 128.033 121.909 127.977C121.839 127.96 121.776 127.921 121.73 127.867C121.683 127.812 121.654 127.745 121.647 127.673L121.203 123.813L88.4674 120.989C88.0016 122.881 85.4466 133.532 86.1594 137.929C86.6334 140.862 87.643 143.683 89.1379 146.25C89.1877 146.333 89.2029 146.432 89.1803 146.526L82.2069 173.981C82.1851 174.071 82.1294 174.148 82.0516 174.196C81.9739 174.245 81.8802 174.262 81.7905 174.243L28.3256 163.183L25.0577 172.732Z" fill="#263238"/>
<path id="Vector_15" d="M88.3749 96.7026C88.3749 96.7026 89.0102 112.936 88.8478 113.437C88.6855 113.938 87.4362 119.973 88.2126 120.615C88.989 121.258 117.546 124.78 118.979 124.78C120.412 124.78 121.371 125.097 121.534 123.502C121.696 121.907 121.851 120.312 121.851 120.312L130.455 86.8354L128.07 62.7674L89.9559 65.7953L88.3749 96.7026Z" fill="white"/>
<path id="Vector_16" d="M120.065 125.133H119.585H118.978C118.724 125.133 89.0451 121.752 87.9935 120.898C86.9418 120.044 88.4946 113.395 88.5158 113.331C88.6075 112.767 88.2688 103.083 88.0217 96.7238V96.6886L89.5886 65.753C89.5935 65.6678 89.629 65.5873 89.6887 65.5263C89.7484 65.4653 89.8282 65.428 89.9133 65.4213L128.027 62.3934C128.118 62.3874 128.208 62.4173 128.278 62.4765C128.348 62.5358 128.392 62.6199 128.401 62.711L130.794 86.779C130.801 86.8211 130.801 86.864 130.794 86.9061L122.183 120.382L121.872 123.516C121.738 124.949 120.969 125.133 120.065 125.133ZM88.7275 96.7027C88.9181 101.643 89.3486 113.063 89.1863 113.55C88.9251 114.341 87.93 119.783 88.4381 120.34C89.5745 120.919 117.376 124.406 118.978 124.406H119.607C120.708 124.441 121.075 124.455 121.181 123.432L121.498 120.241L130.102 86.772L127.752 63.1133L90.2944 66.0989L88.7275 96.7027Z" fill="#263238"/>
<path id="Vector_17" d="M111.214 100.902C111.159 100.902 111.105 100.889 111.056 100.864C111.007 100.84 110.965 100.805 110.931 100.761C110.904 100.724 110.884 100.681 110.873 100.636C110.862 100.591 110.86 100.544 110.868 100.498C110.875 100.452 110.891 100.408 110.915 100.368C110.94 100.329 110.971 100.294 111.009 100.267L112.879 98.8554C112.916 98.8218 112.959 98.7962 113.006 98.7804C113.053 98.7646 113.103 98.7588 113.152 98.7636C113.202 98.7683 113.249 98.7834 113.292 98.8078C113.336 98.8322 113.373 98.8655 113.403 98.9054C113.432 98.9453 113.453 98.991 113.463 99.0394C113.474 99.0879 113.474 99.138 113.464 99.1866C113.454 99.2351 113.434 99.281 113.405 99.3212C113.376 99.3615 113.339 99.3951 113.296 99.42L111.425 100.832C111.365 100.879 111.29 100.904 111.214 100.902Z" fill="#263238"/>
<path id="Vector_18" d="M89.1088 117.107C89.025 117.105 88.945 117.072 88.883 117.016C88.8224 116.944 88.7921 116.852 88.7987 116.758C88.8053 116.664 88.8482 116.577 88.9182 116.515C91.0158 114.686 93.2296 112.996 95.5458 111.454C97.1197 110.529 104.785 104.911 109.217 101.643C109.254 101.61 109.297 101.584 109.344 101.568C109.391 101.552 109.441 101.547 109.49 101.551C109.539 101.556 109.587 101.571 109.63 101.596C109.674 101.62 109.711 101.653 109.74 101.693C109.77 101.733 109.791 101.779 109.801 101.827C109.812 101.876 109.812 101.926 109.802 101.974C109.792 102.023 109.772 102.069 109.743 102.109C109.714 102.149 109.677 102.183 109.634 102.208C104.213 106.21 97.4232 111.172 95.8987 112.089C93.6208 113.612 91.4424 115.279 89.377 117.079C89.2949 117.124 89.1984 117.134 89.1088 117.107Z" fill="#263238"/>
<path id="Vector_19" d="M97.2317 108.793C97.1811 108.792 97.1312 108.782 97.0851 108.761C97.0389 108.74 96.9975 108.71 96.9635 108.673C96.9037 108.6 96.8747 108.507 96.8826 108.414C96.8905 108.32 96.9348 108.233 97.0058 108.172C102.151 103.789 112.534 92.8417 112.639 92.7288C112.67 92.6913 112.709 92.6606 112.752 92.6387C112.795 92.6167 112.843 92.6039 112.891 92.6011C112.94 92.5982 112.988 92.6054 113.034 92.6222C113.079 92.639 113.121 92.665 113.156 92.6986C113.191 92.7322 113.219 92.7726 113.237 92.8174C113.256 92.8622 113.265 92.9104 113.265 92.959C113.264 93.0075 113.253 93.0554 113.233 93.0996C113.213 93.1437 113.184 93.1833 113.148 93.2158C113.049 93.3287 102.638 104.304 97.4575 108.708C97.3955 108.764 97.3149 108.794 97.2317 108.793Z" fill="#263238"/>
<path id="Vector_20" d="M98.7651 120.206C98.6869 120.205 98.6112 120.178 98.5499 120.13C98.4886 120.081 98.4451 120.014 98.4263 119.938C98.4025 119.848 98.4151 119.752 98.4614 119.672C98.5076 119.591 98.5838 119.532 98.6734 119.507C102.202 118.569 107.023 117.263 110.432 116.331C110.522 116.307 110.618 116.32 110.698 116.366C110.779 116.412 110.838 116.489 110.863 116.578C110.887 116.669 110.874 116.765 110.828 116.847C110.782 116.929 110.706 116.989 110.616 117.016C107.207 117.947 102.407 119.253 98.8569 120.192L98.7651 120.206Z" fill="#263238"/>
<path id="Vector_21" d="M112.796 116.409C112.718 116.407 112.642 116.381 112.58 116.335C112.518 116.288 112.472 116.222 112.45 116.147C112.426 116.058 112.439 115.962 112.485 115.881C112.531 115.801 112.607 115.742 112.697 115.717L116.473 114.679C116.517 114.666 116.564 114.662 116.61 114.667C116.656 114.672 116.701 114.686 116.741 114.709C116.782 114.731 116.818 114.761 116.847 114.797C116.876 114.833 116.897 114.875 116.91 114.919C116.923 114.964 116.927 115.011 116.922 115.058C116.916 115.104 116.901 115.149 116.878 115.19C116.855 115.231 116.825 115.266 116.788 115.295C116.751 115.324 116.709 115.345 116.663 115.357L112.88 116.395L112.796 116.409Z" fill="#263238"/>
<path id="Vector_22" d="M185.338 17.9202L192.785 5.6321C192.785 5.6321 196.01 0.0491633 196.257 0.917306C196.42 1.22909 196.494 1.57937 196.471 1.93021C196.449 2.28105 196.331 2.61907 196.13 2.90768C195.636 3.89581 193.9 9.47875 193.9 9.47875L199.356 3.89581C199.356 3.89581 200.972 3.02767 200.725 4.14285C200.478 5.25802 196.878 9.97987 196.878 9.97987C196.878 9.97987 203.329 7.36838 203.576 8.11654C203.823 8.86469 197.499 12.9584 197.499 12.9584C197.499 12.9584 203.951 13.2054 203.852 13.9465C203.753 14.6876 198.269 15.1887 198.269 15.1887C198.269 15.1887 197.528 16.805 194.549 18.9083C192.911 20.0942 191.115 21.0446 189.213 21.7316L185.338 17.9202Z" fill="white"/>
<path id="Vector_23" d="M189.186 22.1199C189.14 22.1204 189.094 22.1113 189.051 22.0931C189.009 22.0748 188.97 22.0479 188.939 22.014L185.085 18.2026C185.03 18.1466 184.996 18.0738 184.987 17.9958C184.978 17.9179 184.995 17.8391 185.036 17.7721L192.482 5.48399C195.418 0.409238 196.011 0.486877 196.216 0.543342C196.307 0.555336 196.392 0.594876 196.46 0.656677C196.529 0.718478 196.576 0.799594 196.597 0.889186L196.668 1.1221C196.801 1.44807 196.85 1.80207 196.812 2.15206C196.774 2.50206 196.649 2.83701 196.449 3.12659C196.124 3.77594 195.228 6.52153 194.684 8.2437L199.11 3.71241L199.194 3.64889C199.533 3.46538 200.38 3.07719 200.846 3.43009C200.967 3.532 201.053 3.66865 201.094 3.82146C201.134 3.97426 201.126 4.1358 201.072 4.28412C200.874 5.15226 199.004 7.81315 197.91 9.22477C199.942 8.44838 202.921 7.41084 203.634 7.74257C203.698 7.77077 203.756 7.8115 203.805 7.8624C203.853 7.91329 203.891 7.97333 203.916 8.03901C203.994 8.27899 204.227 8.97068 198.601 12.6903C200.62 12.8032 203.592 13.0644 204.064 13.6431C204.109 13.6977 204.143 13.761 204.162 13.829C204.181 13.897 204.187 13.9683 204.177 14.0384C204.135 14.2925 204.008 15.0406 198.467 15.5559C197.486 17.025 196.212 18.2766 194.727 19.2331C193.063 20.455 191.233 21.4319 189.292 22.134C189.256 22.1361 189.22 22.1313 189.186 22.1199ZM185.784 17.885L189.278 21.4141C191.067 20.7223 192.761 19.8043 194.317 18.6826C197.14 16.664 197.917 15.1112 197.924 15.0971C197.951 15.0413 197.992 14.9933 198.042 14.9575C198.093 14.9217 198.152 14.8993 198.213 14.8924C199.939 14.7857 201.648 14.4898 203.309 14.0101C201.395 13.6018 199.444 13.3866 197.486 13.3679C197.411 13.3648 197.338 13.3379 197.278 13.291C197.219 13.2441 197.175 13.1796 197.155 13.1067C197.136 13.0339 197.141 12.957 197.169 12.8871C197.196 12.8173 197.246 12.7582 197.31 12.7185C199.773 11.1234 202.49 9.14713 203.112 8.38485C202.208 8.44838 199.406 9.39416 197.013 10.3611C196.941 10.3898 196.861 10.3943 196.786 10.374C196.711 10.3536 196.645 10.3095 196.597 10.2482C196.549 10.1865 196.524 10.1108 196.524 10.0329C196.524 9.95504 196.549 9.87936 196.597 9.81765C198.009 7.94726 200.211 4.87699 200.38 4.12884C200.393 4.0707 200.393 4.01053 200.38 3.95239C200.093 4.00222 199.816 4.10005 199.561 4.24177L194.155 9.73295C194.1 9.79025 194.028 9.82741 193.949 9.83845C193.87 9.8495 193.791 9.83378 193.722 9.79383C193.654 9.75387 193.601 9.69201 193.571 9.61822C193.542 9.54444 193.539 9.46302 193.562 9.3871C193.633 9.15419 195.312 3.74065 195.821 2.75252C196.181 2.04671 196.173 1.89849 196.018 1.3409C194.929 2.74835 193.95 4.23727 193.089 5.79454L185.784 17.885Z" fill="#263238"/>
<path id="Vector_24" d="M188.69 14.8148C190.797 14.3836 192.81 13.5857 194.64 12.4574C197.252 10.7211 199.581 9.23187 199.581 10.1C199.581 10.9682 196.603 13.4526 196.228 13.6996C195.854 13.9467 195.233 15.8171 193.991 17.4263C192.749 19.0355 189.403 20.3977 189.403 20.3977" fill="white"/>
<path id="Vector_25" d="M189.431 20.7506C189.361 20.7522 189.292 20.7321 189.234 20.6929C189.176 20.6537 189.131 20.5974 189.106 20.5318C189.071 20.4457 189.072 20.3491 189.107 20.2632C189.143 20.1773 189.211 20.109 189.297 20.073C189.332 20.073 192.572 18.7249 193.744 17.2075C194.338 16.3939 194.856 15.5267 195.289 14.6171C195.649 13.9113 195.833 13.5584 196.059 13.4102C196.701 12.9797 199.002 10.9046 199.235 10.2059C198.487 10.3188 195.861 12.0692 194.838 12.7538C192.97 13.9141 190.909 14.7293 188.754 15.1606C188.708 15.1708 188.66 15.1716 188.614 15.1627C188.567 15.1539 188.523 15.1357 188.484 15.1093C188.445 15.0828 188.412 15.0487 188.387 15.009C188.362 14.9693 188.345 14.9248 188.337 14.8783C188.321 14.7866 188.341 14.6921 188.394 14.6154C188.447 14.5388 188.528 14.4861 188.619 14.4689C190.682 14.0463 192.654 13.2677 194.449 12.168C197.922 9.84589 199.094 9.26007 199.665 9.57062C199.758 9.62339 199.835 9.70063 199.887 9.79394C199.94 9.88725 199.965 9.99309 199.962 10.1C199.962 11.2716 196.489 13.9678 196.433 13.996C196.223 14.29 196.043 14.6045 195.896 14.9348C195.447 15.8867 194.906 16.7921 194.28 17.638C192.995 19.3037 189.685 20.673 189.544 20.7294C189.507 20.7414 189.47 20.7485 189.431 20.7506Z" fill="#263238"/>
<path id="Vector_26" d="M181.986 20.1506L185.96 16.678L190.675 22.755L187.075 25.8605L181.986 20.1506Z" fill="white"/>
<path id="Vector_27" d="M187.075 26.2137C187.025 26.2131 186.976 26.2021 186.931 26.1815C186.886 26.1608 186.846 26.1309 186.814 26.0937L181.725 20.3908C181.693 20.3554 181.668 20.3142 181.653 20.2694C181.637 20.2245 181.63 20.177 181.633 20.1296C181.636 20.0836 181.648 20.0387 181.669 19.9975C181.689 19.9563 181.718 19.9196 181.753 19.8896L185.727 16.41C185.763 16.3786 185.806 16.3549 185.852 16.3404C185.898 16.3258 185.947 16.3207 185.995 16.3253C186.088 16.3392 186.174 16.3869 186.235 16.4594L190.95 22.5435C190.978 22.5781 191 22.6181 191.013 22.661C191.026 22.704 191.03 22.7491 191.025 22.7938C191.021 22.8384 191.007 22.8817 190.986 22.9212C190.964 22.9606 190.935 22.9953 190.9 23.0234L187.308 26.129C187.242 26.1834 187.16 26.2133 187.075 26.2137ZM182.487 20.1861L187.11 25.3667L190.187 22.7129L185.91 17.1935L182.487 20.1861Z" fill="#263238"/>
<path id="Vector_28" d="M124.172 70.6511C124.172 70.6511 124.045 73.0155 127.151 81.4499C130.268 90.4473 132.918 99.5997 135.091 108.871C135.584 111.074 135.875 113.319 135.959 115.576C135.959 115.576 139.806 105.892 139.679 95.9684C139.552 86.0447 133.849 72.1403 133.849 72.1403C133.849 72.1403 155.192 57.7489 158.912 54.6504C162.632 51.5519 187.85 26.8557 187.85 26.8557L182.02 20.1506L153.237 40.379L128.753 52.7871C128.753 52.7871 123.812 55.6103 123.043 57.0219C122.274 58.4336 121.187 62.8519 121.434 64.2141C121.681 65.5763 124.172 70.6511 124.172 70.6511Z" fill="#1F64FF"/>
<path id="Vector_29" d="M135.954 115.929H135.883C135.804 115.912 135.732 115.869 135.681 115.806C135.629 115.743 135.601 115.664 135.601 115.583C135.513 113.35 135.225 111.13 134.74 108.948C132.568 99.6949 129.922 90.5592 126.814 81.5771C123.991 73.9896 123.821 71.2723 123.814 70.7429C123.489 70.0865 121.33 65.5905 121.09 64.2707C120.814 62.7885 121.993 58.2078 122.741 56.8456C123.489 55.4834 128.063 52.7872 128.578 52.4908L153.042 40.0827L181.782 19.8825C181.855 19.8341 181.942 19.8132 182.029 19.8236C182.116 19.8339 182.196 19.8748 182.255 19.9389L188.085 26.6441C188.147 26.7085 188.182 26.7946 188.182 26.8841C188.182 26.9736 188.147 27.0596 188.085 27.124C187.838 27.3711 162.845 51.8626 159.147 54.9399C155.618 57.8761 136.752 70.6371 134.288 72.2957C135.079 74.2861 139.935 86.8636 140.041 95.9826C140.168 105.864 136.335 115.625 136.293 115.745C136.26 115.805 136.211 115.855 136.151 115.887C136.09 115.92 136.022 115.934 135.954 115.929ZM124.52 70.6723C124.52 70.6723 124.463 73.1356 127.477 81.33C130.612 90.343 133.279 99.5119 135.467 108.8C135.816 110.462 136.072 112.142 136.236 113.832C137.302 110.677 139.448 103.351 139.356 95.9755C139.236 86.2283 133.611 72.4157 133.554 72.2745C133.523 72.2002 133.518 72.1172 133.541 72.0398C133.564 71.9625 133.614 71.8957 133.681 71.851C133.893 71.7099 155.053 57.4314 158.716 54.3753C162.196 51.4814 184.789 29.3615 187.372 26.8488L181.966 20.6377L153.437 40.6826L128.952 53.1119C127.611 53.8883 123.962 56.1398 123.391 57.1914C122.685 58.5325 121.591 62.9226 121.817 64.1507C122.043 65.3788 124.492 70.4606 124.52 70.503C124.531 70.5588 124.531 70.6165 124.52 70.6723Z" fill="#263238"/>
<path id="Vector_30" d="M130.864 85.7767C130.786 85.7759 130.71 85.7491 130.649 85.7005C130.587 85.652 130.544 85.5845 130.525 85.5085C130.525 85.438 130.377 85.205 130.271 85.0004C130.095 84.6757 129.855 84.231 129.629 83.7017C129.604 83.6587 129.589 83.611 129.583 83.5617C129.578 83.5124 129.584 83.4625 129.599 83.4154C129.615 83.3683 129.64 83.3249 129.673 83.2882C129.706 83.2515 129.747 83.2221 129.792 83.2022C129.838 83.1822 129.887 83.1721 129.937 83.1724C129.986 83.1727 130.035 83.1834 130.08 83.2039C130.125 83.2244 130.166 83.2542 130.199 83.2913C130.232 83.3284 130.256 83.372 130.271 83.4193C130.49 83.9275 130.723 84.351 130.892 84.6616C131.019 84.8866 131.126 85.1229 131.21 85.3674C131.231 85.459 131.216 85.5554 131.167 85.6359C131.118 85.7164 131.04 85.7745 130.949 85.7979L130.864 85.7767Z" fill="#263238"/>
<path id="Vector_31" d="M129.55 82.8618C129.476 82.8618 129.403 82.8378 129.344 82.7933C129.284 82.7488 129.24 82.6862 129.219 82.6147C128.928 81.7162 128.778 80.7782 128.774 79.8339C128.832 77.7054 129.108 75.5886 129.6 73.5169L125.055 69.6844C124.996 69.6336 124.955 69.5649 124.939 69.4888C124.923 69.4127 124.933 69.3335 124.967 69.2635C125.001 69.1935 125.057 69.1367 125.126 69.1017C125.196 69.0668 125.275 69.0557 125.351 69.0703L128.781 69.7761L124.582 59.9795C124.544 59.8934 124.542 59.7959 124.577 59.7086C124.611 59.6212 124.679 59.5511 124.765 59.5137C124.851 59.4762 124.949 59.4745 125.036 59.509C125.123 59.5434 125.194 59.6111 125.231 59.6972L129.699 70.122C129.725 70.1813 129.734 70.2466 129.725 70.3108C129.716 70.375 129.69 70.4356 129.649 70.4859C129.609 70.5362 129.555 70.5742 129.494 70.596C129.433 70.6177 129.367 70.6222 129.303 70.609L126.586 70.0302L130.221 73.0934C130.272 73.1349 130.31 73.1904 130.33 73.253C130.35 73.3157 130.351 73.3829 130.334 73.4463C129.836 75.5295 129.55 77.6578 129.48 79.7986C129.482 80.671 129.62 81.5377 129.889 82.3677C129.903 82.4117 129.909 82.4581 129.904 82.5041C129.9 82.5502 129.887 82.5949 129.865 82.6357C129.843 82.6765 129.814 82.7125 129.778 82.7416C129.742 82.7708 129.701 82.7924 129.656 82.8053L129.55 82.8618Z" fill="#263238"/>
<path id="Vector_32" d="M141.818 53.6906C141.771 53.7005 141.723 53.7005 141.677 53.6906C141.634 53.6729 141.596 53.6469 141.563 53.6141C141.531 53.5814 141.506 53.5425 141.489 53.4997C141.472 53.457 141.463 53.4113 141.464 53.3653C141.465 53.3193 141.475 53.2739 141.493 53.2318L142.566 50.6909C142.584 50.6482 142.611 50.6095 142.645 50.5771C142.678 50.5447 142.718 50.5193 142.761 50.5022C142.804 50.4852 142.85 50.4768 142.897 50.4777C142.943 50.4786 142.989 50.4887 143.032 50.5074C143.074 50.5251 143.113 50.5511 143.145 50.5838C143.178 50.6166 143.203 50.6555 143.22 50.6982C143.237 50.7409 143.246 50.7866 143.245 50.8327C143.244 50.8787 143.234 50.924 143.215 50.9662L142.143 53.5071C142.111 53.5649 142.064 53.6128 142.006 53.6452C141.949 53.6776 141.884 53.6934 141.818 53.6906Z" fill="#263238"/>
<path id="Vector_33" d="M133.844 72.4933H133.773C133.693 72.4771 133.622 72.4338 133.57 72.3707C133.519 72.3077 133.491 72.2288 133.491 72.1475L133.244 55.5187C133.244 55.4251 133.281 55.3353 133.347 55.2691C133.413 55.203 133.503 55.1658 133.597 55.1658C133.69 55.1658 133.78 55.203 133.846 55.2691C133.912 55.3353 133.949 55.4251 133.949 55.5187L134.168 70.4747L140.464 55.6528C140.503 55.5702 140.572 55.5059 140.657 55.4734C140.743 55.4408 140.837 55.4425 140.921 55.4781C141.005 55.5137 141.072 55.5804 141.108 55.6643C141.144 55.7482 141.146 55.8427 141.113 55.928L134.168 72.2887C134.14 72.351 134.095 72.4037 134.037 72.4402C133.979 72.4766 133.912 72.4951 133.844 72.4933Z" fill="#263238"/>
<path id="Vector_34" d="M112.924 71.6887L117.208 77.2434C118.368 76.7896 119.402 76.0633 120.222 75.126C121.958 73.3897 123.695 69.6842 123.927 68.9855C124.16 68.2867 121.732 66.2046 121.732 66.2046L110.143 66.6704L112.924 71.6887Z" fill="#263238"/>
<path id="Vector_35" d="M117.208 77.5963C117.155 77.5955 117.103 77.5831 117.055 77.5599C117.007 77.5368 116.966 77.5034 116.932 77.4622L112.648 71.9004C112.646 71.8864 112.646 71.8721 112.648 71.8581L109.839 66.9033C109.808 66.851 109.792 66.7912 109.792 66.7304C109.792 66.6695 109.808 66.6098 109.839 66.5574C109.868 66.5057 109.91 66.4622 109.961 66.4313C110.011 66.4004 110.069 66.3831 110.128 66.381L121.718 65.9152C121.761 65.9128 121.805 65.919 121.846 65.9336C121.887 65.9481 121.925 65.9706 121.958 65.9999C122.932 66.8398 124.534 68.3572 124.266 69.1619C123.997 69.9665 122.226 73.679 120.475 75.4365C119.606 76.4034 118.52 77.1508 117.306 77.6174L117.208 77.5963ZM113.22 71.491L117.335 76.8269C118.326 76.3594 119.221 75.7107 119.974 74.9142C121.619 73.2626 123.355 69.6136 123.595 68.9078C123.595 68.6255 122.699 67.5597 121.605 66.5998L110.735 67.0374L113.22 71.491Z" fill="#263238"/>
<path id="Vector_36" d="M114.56 30.3071C114.56 30.3071 121.166 33.0174 121.618 34.2103C121.968 35.4521 122.22 36.7193 122.373 38.0004C122.373 38.0004 129.636 40.3861 129.311 41.8965C128.986 43.4069 126.488 45.0373 126.488 45.0373C127.201 46.9448 127.778 48.9 128.217 50.8885C128.655 53.2741 128.436 54.4669 127.673 55.8715C127.126 56.8076 126.391 57.6199 125.514 58.2571C125.514 58.2571 122.69 64.5388 121.611 67.7855C120.531 71.0322 119.987 72.6626 118.364 72.0204C117.426 71.6675 116.602 71.0676 115.978 70.2841C115.978 70.2841 113.155 64.2212 110.995 62.0544C109.649 60.7052 108.16 59.5054 106.556 58.4759C106.231 58.2642 104.608 57.396 104.608 55.9844C104.608 54.5728 106.556 53.2812 106.556 53.2812C106.556 53.2812 101.248 53.1682 100.38 46.5619C99.5117 39.9555 105.688 33.8926 107.96 32.0505C110.233 30.2083 114.56 30.3071 114.56 30.3071Z" fill="white"/>
<path id="Vector_37" d="M118.993 72.5073C118.726 72.5004 118.463 72.4429 118.217 72.338C117.218 71.9603 116.34 71.3188 115.676 70.4817C115.62 70.3688 112.853 64.3906 110.736 62.2943C109.447 61.0002 108.028 59.8435 106.501 58.8429L106.268 58.6947C105.724 58.3559 104.277 57.4525 104.277 55.9773C104.277 54.9751 105.096 54.0505 105.689 53.5C104.08 53.147 100.706 51.7919 100.043 46.6042C99.0474 39.0521 106.854 32.4881 107.75 31.7823C110.1 29.8836 114.406 29.9683 114.589 29.9683H114.716C115.839 30.4342 121.485 32.7916 121.951 34.0761C122.3 35.2674 122.551 36.4855 122.699 37.7181C124.675 38.3816 130.004 40.3296 129.651 41.9529C129.362 43.3152 127.534 44.6915 126.92 45.1573C127.605 46.9973 128.157 48.8844 128.571 50.8038C128.995 53.1188 128.847 54.4316 127.993 56.0197C127.44 56.9762 126.695 57.8078 125.805 58.4618C125.459 59.2311 122.981 64.8846 121.951 67.8773C121.118 70.3829 120.617 71.8933 119.636 72.3521C119.435 72.4491 119.216 72.5021 118.993 72.5073ZM116.283 70.1288C116.877 70.8183 117.63 71.3515 118.478 71.6816C118.606 71.7506 118.748 71.7908 118.893 71.7994C119.038 71.8079 119.183 71.7846 119.318 71.731C120.024 71.4063 120.539 69.8394 121.266 67.6726C122.339 64.447 125.148 58.1724 125.176 58.1089C125.204 58.0528 125.246 58.0044 125.296 57.9677C126.126 57.3577 126.824 56.5872 127.35 55.7021C128.056 54.4457 128.296 53.3659 127.858 50.952C127.422 48.9853 126.849 47.0514 126.143 45.1644C126.116 45.09 126.114 45.0084 126.138 44.9329C126.162 44.8573 126.211 44.7922 126.277 44.7479C126.941 44.3174 128.705 42.9481 128.945 41.8259C129.079 41.1836 125.953 39.5532 122.247 38.3322C122.184 38.3114 122.128 38.2733 122.086 38.2221C122.043 38.1709 122.016 38.1087 122.007 38.0428C121.856 36.7881 121.608 35.547 121.266 34.3302C121.033 33.6809 117.645 31.9587 114.483 30.66C113.961 30.66 110.178 30.66 108.173 32.3187C107.312 33.0245 99.7814 39.3415 100.72 46.5125C101.532 52.7236 106.367 52.9141 106.55 52.9212C106.624 52.9235 106.696 52.9492 106.754 52.9945C106.813 53.0398 106.856 53.1024 106.877 53.1735C106.898 53.2446 106.897 53.3206 106.872 53.3906C106.847 53.4606 106.802 53.5211 106.741 53.5635C106.24 53.9023 104.948 54.9751 104.948 55.9773C104.948 56.9796 106.155 57.8124 106.607 58.0948L106.854 58.25C108.434 59.2669 109.901 60.45 111.23 61.7791C113.418 63.9671 116.17 69.8465 116.283 70.1147V70.1288Z" fill="#263238"/>
<path id="Vector_38" d="M120.976 39.1085C121.364 39.7791 121.456 40.4566 121.174 40.626C120.891 40.7954 120.341 40.379 119.945 39.7085C119.55 39.038 119.465 38.3604 119.748 38.191C120.03 38.0216 120.581 38.438 120.976 39.1085Z" fill="#263238"/>
<path id="Vector_39" d="M117.589 38.3535H117.526C117.434 38.3364 117.353 38.2837 117.3 38.207C117.247 38.1303 117.227 38.0358 117.243 37.9442C117.394 37.299 117.751 36.7207 118.261 36.2976C118.771 35.8745 119.405 35.6298 120.067 35.6009C120.113 35.5962 120.16 35.6008 120.204 35.6142C120.249 35.6277 120.29 35.6498 120.326 35.6793C120.363 35.7088 120.392 35.7451 120.414 35.7861C120.436 35.8272 120.45 35.8722 120.455 35.9185C120.459 35.9648 120.455 36.0116 120.441 36.0562C120.428 36.1008 120.406 36.1423 120.376 36.1784C120.347 36.2144 120.311 36.2443 120.27 36.2663C120.229 36.2883 120.184 36.3021 120.137 36.3067C119.63 36.3243 119.143 36.5068 118.75 36.8266C118.356 37.1463 118.077 37.5858 117.956 38.0783C117.939 38.1611 117.893 38.2348 117.825 38.2855C117.757 38.3362 117.673 38.3604 117.589 38.3535Z" fill="#263238"/>
<path id="Vector_40" d="M117.589 28.9028C117.589 28.9028 117.702 29.5521 116.178 30.3144C113.832 31.414 111.673 32.8765 109.783 34.6481C107.616 36.8149 109.352 36.4902 110.221 36.9278C111.089 37.3654 111.519 37.7889 110.432 39.8499C109.345 41.9108 109.352 42.6731 109.352 42.6731C109.352 42.6731 116.178 48.5242 117.37 49.4983C117.713 49.7825 118.113 49.988 118.544 50.1002C118.974 50.2124 119.424 50.2286 119.862 50.1476C119.862 50.1476 124.301 46.1386 125.381 45.5951L126.468 45.0517C126.468 45.0517 128.092 46.0327 128.96 49.1736C129.828 52.3144 131.127 56.641 130.258 57.6433C129.39 58.6455 124.513 58.7232 119.671 58.0738C114.829 57.4245 113.495 54.1778 112.952 52.6603C112.409 51.1428 109.924 46.0539 108.512 45.2916C107.101 44.5294 105.153 45.941 106.24 48.8701C107.327 51.7992 111.547 52.4415 111.653 52.872C111.759 53.3026 110.679 55.1518 108.407 56.1258C106.134 57.0998 105.047 56.4505 104.616 56.0129C104.186 55.5753 102.231 56.7751 96.4926 49.5194C90.7543 42.2637 91.072 41.1768 91.6154 39.4405C92.1589 37.7042 97.8971 28.2887 101.497 25.7972C105.096 23.3057 106.804 23.1999 107.143 24.2798C107.339 24.9144 107.339 25.5931 107.143 26.2278C107.143 26.2278 110.065 21.7883 115.048 23.9551C120.031 26.1219 117.589 28.9028 117.589 28.9028Z" fill="#263238"/>
<path id="Vector_41" d="M125.451 58.8007C123.494 58.7891 121.54 58.6524 119.6 58.3913C114.37 57.6855 113.086 54.0929 112.599 52.7448C111.978 50.9944 109.528 46.2161 108.329 45.5668C108.094 45.4382 107.826 45.3855 107.561 45.4158C107.295 45.4462 107.046 45.5581 106.846 45.7362C106.183 46.3079 106.07 47.423 106.55 48.7076C107.256 50.6556 109.507 51.5308 110.841 52.0461C111.547 52.3284 111.9 52.4554 111.978 52.7519C112.147 53.4577 110.841 55.4198 108.526 56.415C106.091 57.4596 104.856 56.7468 104.341 56.2315L104.101 56.1892C103.141 56.0268 100.911 55.6598 96.1957 49.7028C90.3234 42.2848 90.6763 41.1625 91.2551 39.3063C91.8338 37.45 97.685 27.9569 101.249 25.4724C103.804 23.6938 105.625 22.9739 106.649 23.355C106.836 23.4168 107.004 23.5239 107.14 23.6668C107.275 23.8096 107.373 23.9838 107.425 24.1738C107.514 24.477 107.566 24.7898 107.58 25.1054C108.519 24.0893 109.757 23.398 111.115 23.1316C112.472 22.8651 113.879 23.0373 115.133 23.6232C117.045 24.4561 118.16 25.4936 118.443 26.7076C118.528 27.1115 118.527 27.5288 118.441 27.9324C118.355 28.3361 118.184 28.7171 117.942 29.0509C117.899 29.3685 117.645 30.0037 116.339 30.6531C114.026 31.7302 111.9 33.1719 110.044 34.9232C109.049 35.9113 109.098 36.1795 109.098 36.1866C109.273 36.2918 109.467 36.3613 109.67 36.3913C109.912 36.4472 110.149 36.5276 110.375 36.6313C110.597 36.7127 110.8 36.8395 110.97 37.0036C111.14 37.1676 111.274 37.3653 111.364 37.5841C111.547 38.1346 111.364 38.8687 110.749 40.0332C110.294 40.8171 109.95 41.6604 109.726 42.5389C110.721 43.3929 116.509 48.3547 117.589 49.237C117.881 49.4775 118.22 49.6544 118.585 49.7565C118.95 49.8586 119.331 49.8836 119.706 49.8298C120.313 49.2934 124.188 45.8209 125.24 45.2915L126.32 44.7551C126.371 44.7254 126.43 44.7097 126.489 44.7097C126.548 44.7097 126.607 44.7254 126.658 44.7551C126.729 44.7974 128.416 45.835 129.312 49.0746L129.517 49.7804C130.653 53.8812 131.394 56.8385 130.533 57.8266C129.926 58.5183 127.922 58.8007 125.451 58.8007ZM107.7 44.6845C108.035 44.6845 108.365 44.7669 108.66 44.9245C110.262 45.7856 112.825 51.2768 113.262 52.4837C113.7 53.6906 114.886 57.0291 119.692 57.6643C125.056 58.3701 129.348 58.0807 129.997 57.3467C130.646 56.6127 129.559 52.6037 128.825 49.9639L128.621 49.2581C128.306 47.7965 127.544 46.4692 126.44 45.4609L125.55 45.9056C124.696 46.329 121.315 49.2934 120.101 50.4015C120.059 50.4383 120.008 50.4648 119.953 50.4792C119.46 50.5807 118.95 50.57 118.461 50.4478C117.973 50.3257 117.518 50.0952 117.13 49.7734C115.951 48.8064 109.176 43.0047 109.105 42.9482C109.068 42.9142 109.038 42.8728 109.017 42.8267C108.996 42.7805 108.985 42.7306 108.985 42.68C108.985 42.5953 108.985 41.7766 110.107 39.7015C110.601 38.7557 110.813 38.1346 110.679 37.7888C110.615 37.5982 110.453 37.4571 110.044 37.2524C109.859 37.1745 109.668 37.1131 109.472 37.0688C109.027 36.9559 108.526 36.8289 108.399 36.363C108.272 35.8972 108.597 35.3326 109.521 34.408C111.433 32.6058 113.62 31.1213 116.001 30.0108C117.194 29.4108 117.215 28.9521 117.215 28.945C117.209 28.899 117.214 28.8523 117.228 28.8084C117.243 28.7644 117.267 28.7243 117.299 28.6909C117.499 28.4326 117.64 28.1344 117.715 27.8166C117.789 27.4988 117.794 27.1687 117.73 26.8488C117.497 25.8677 116.523 24.9925 114.829 24.2585C110.185 22.2398 107.467 26.2347 107.355 26.3759C107.305 26.4442 107.233 26.4927 107.151 26.5124C107.069 26.5321 106.983 26.5219 106.908 26.4835C106.833 26.4451 106.774 26.3812 106.742 26.3032C106.71 26.2251 106.707 26.1383 106.733 26.0583C106.9 25.4939 106.9 24.8934 106.733 24.329C106.712 24.248 106.67 24.1737 106.612 24.1132C106.554 24.0527 106.482 24.008 106.402 23.9832C106.042 23.8491 104.849 23.7997 101.638 26.0371C98.172 28.4509 92.462 37.69 91.9185 39.4968C91.4245 41.0778 91.0998 42.1224 96.7322 49.2511C101.278 54.9964 103.402 55.3422 104.2 55.4763C104.429 55.4879 104.649 55.5719 104.828 55.7163C105.216 56.1045 106.176 56.6268 108.23 55.7516C109.563 55.2526 110.651 54.2557 111.265 52.9707C111.124 52.9001 110.834 52.7872 110.559 52.6884C109.204 52.159 106.691 51.185 105.858 48.9405C105.272 47.3666 105.463 45.962 106.352 45.1856C106.729 44.8675 107.208 44.697 107.7 44.7057V44.6845Z" fill="#263238"/>
<path id="Vector_42" d="M125.585 50.3945C124.571 50.4483 123.571 50.1407 122.762 49.5263C122.729 49.4935 122.703 49.4545 122.685 49.4115C122.667 49.3685 122.658 49.3223 122.658 49.2758C122.658 49.2292 122.667 49.1831 122.685 49.14C122.703 49.097 122.729 49.058 122.762 49.0252C122.828 48.9605 122.917 48.9243 123.009 48.9243C123.102 48.9243 123.19 48.9605 123.256 49.0252C123.32 49.0817 124.597 50.1757 127.265 49.484C127.359 49.4606 127.458 49.4753 127.541 49.5249C127.623 49.5746 127.683 49.6551 127.706 49.7487C127.73 49.8423 127.715 49.9413 127.665 50.024C127.616 50.1068 127.535 50.1664 127.442 50.1898C126.834 50.339 126.21 50.4078 125.585 50.3945Z" fill="white"/>
<path id="Vector_43" d="M103.197 58.8288L99.597 61.1015C99.597 61.1015 85.0786 61.1015 84.0693 62.0896C83.06 63.0778 55.4064 87.654 55.1312 88.9103C54.8559 90.1666 46.0757 120.051 46.0757 120.051L55.5053 123.777L68.4074 95.2343L84.2881 87.174C84.2881 87.174 84.0411 91.1407 80.8155 96.6036C77.59 102.067 66.7982 113.726 66.7982 113.726C66.7982 113.726 77.837 104.417 84.5422 101.318C91.2473 98.2199 95.461 99.9491 100.776 93.251C106.09 86.5529 109.083 81.09 108.963 75.7541C108.843 70.4181 103.197 58.8288 103.197 58.8288Z" fill="#1F64FF"/>
<path id="Vector_44" d="M55.5463 124.116C55.5022 124.126 55.4563 124.126 55.4122 124.116L45.9826 120.397C45.8998 120.365 45.8323 120.302 45.7942 120.222C45.7561 120.142 45.7503 120.05 45.7779 119.966C45.8626 119.67 54.5864 90.0681 54.8264 88.8541C54.9817 88.0706 61.3904 82.0783 79.3179 65.9577C81.8094 63.7203 83.6021 62.104 83.8351 61.871C84.8444 60.8617 95.9326 60.7771 99.4899 60.7771L103.019 58.5608C103.06 58.5336 103.107 58.5158 103.155 58.5084C103.204 58.5011 103.254 58.5046 103.301 58.5185C103.349 58.532 103.394 58.5553 103.433 58.5869C103.472 58.6184 103.504 58.6576 103.527 58.702C103.76 59.1749 109.265 70.4113 109.392 75.7613C109.505 80.7655 107.035 86.0661 101.127 93.4842C97.5348 97.9943 94.4222 98.7707 90.8084 99.66C88.7252 100.116 86.6938 100.783 84.7456 101.65C78.1604 104.699 67.1851 113.917 67.1004 114.009C67.0317 114.066 66.9441 114.094 66.8552 114.089C66.7663 114.084 66.6826 114.045 66.621 113.981C66.5594 113.917 66.5243 113.831 66.5229 113.742C66.5215 113.653 66.5538 113.567 66.6134 113.501C66.7192 113.381 77.4193 101.799 80.5883 96.4344C82.2227 93.7862 83.3567 90.8603 83.9339 87.8024L68.752 95.5098L55.8992 123.94C55.8654 124.002 55.8135 124.052 55.7504 124.083C55.6873 124.115 55.6161 124.126 55.5463 124.116ZM46.5331 119.839L55.3487 123.319L68.1167 95.0863C68.1443 95.0117 68.2 94.9509 68.272 94.917L84.1597 86.8496C84.2152 86.8222 84.2769 86.8099 84.3387 86.814C84.4004 86.818 84.46 86.8382 84.5115 86.8725C84.5629 86.9068 84.6045 86.9541 84.6319 87.0095C84.6594 87.0649 84.6718 87.1266 84.6679 87.1884C84.6679 87.3507 84.3785 91.3032 81.1389 96.7732C78.9862 100.422 73.5726 106.711 70.1212 110.593C73.9538 107.572 80.1013 102.984 84.4138 100.987C86.4051 100.107 88.4785 99.426 90.6038 98.9542C94.0904 98.0931 97.0972 97.3449 100.534 93.0254C106.336 85.7414 108.764 80.582 108.651 75.7543C108.538 71.0748 103.972 61.3205 103.005 59.3443L99.7369 61.4052C99.6821 61.4406 99.6186 61.4602 99.5534 61.4617C92.5518 61.4617 84.9291 61.7934 84.2868 62.351C84.0468 62.591 82.3387 64.1296 79.7484 66.4588C72.648 72.8111 56.0263 87.7954 55.4687 89.0093C55.2781 90.1528 47.5283 116.479 46.5331 119.839Z" fill="#263238"/>
<path id="Vector_45" d="M84.331 87.5128H84.2464C84.2014 87.5013 84.1591 87.481 84.1219 87.4531C84.0848 87.4252 84.0535 87.3903 84.0299 87.3503C84.0063 87.3103 83.9909 87.266 83.9844 87.22C83.9779 87.174 83.9806 87.1272 83.9923 87.0823C83.9923 87.0823 84.8322 83.7226 84.1052 78.2808C84.093 78.1872 84.1185 78.0927 84.1761 78.0179C84.2337 77.9431 84.3186 77.8942 84.4122 77.8821C84.5058 77.8699 84.6004 77.8954 84.6752 77.953C84.75 78.0106 84.7988 78.0955 84.811 78.1891C85.5168 83.7791 84.7122 87.1176 84.6769 87.2587C84.6552 87.3332 84.6096 87.3984 84.547 87.4444C84.4845 87.4903 84.4086 87.5143 84.331 87.5128Z" fill="#263238"/>
<path id="Vector_46" d="M98.7643 94.3379C98.697 94.3357 98.6315 94.3162 98.5738 94.2815C98.4955 94.2307 98.44 94.1516 98.419 94.0608C98.3979 93.9699 98.4129 93.8745 98.4608 93.7945C98.4608 93.7945 98.9831 92.9546 99.7313 91.6771C99.7781 91.5956 99.8553 91.5361 99.946 91.5116C100.037 91.4872 100.133 91.4997 100.215 91.5465C100.296 91.5933 100.356 91.6705 100.38 91.7612C100.405 91.8519 100.392 91.9485 100.345 92.03C99.5831 93.3357 99.0608 94.1474 99.0608 94.1474C99.0324 94.2023 98.9901 94.2489 98.9381 94.2823C98.886 94.3158 98.8261 94.3349 98.7643 94.3379Z" fill="#263238"/>
<path id="Vector_47" d="M100.882 90.6327C100.819 90.6339 100.758 90.6167 100.705 90.5833C100.664 90.5612 100.628 90.5311 100.599 90.4948C100.57 90.4585 100.549 90.4166 100.536 90.3718C100.524 90.327 100.52 90.2801 100.526 90.234C100.532 90.1879 100.548 90.1434 100.571 90.1033C101.828 87.8589 102.844 85.8685 103.599 84.1604C105.505 79.8762 102.752 72.7193 102.724 72.6417C102.705 72.597 102.695 72.549 102.695 72.5005C102.695 72.452 102.705 72.404 102.724 72.3593C102.745 72.3161 102.775 72.2776 102.811 72.2461C102.848 72.2146 102.89 72.1907 102.936 72.1758L104.975 71.5547L102.004 69.9737C101.959 69.9486 101.92 69.9142 101.89 69.8728C101.859 69.8314 101.838 69.784 101.828 69.7337L100.211 61.7934C100.202 61.748 100.202 61.7012 100.211 61.6557C100.219 61.6102 100.237 61.5668 100.263 61.5282C100.288 61.4895 100.321 61.4562 100.36 61.4303C100.398 61.4043 100.441 61.3862 100.487 61.377C100.532 61.3667 100.579 61.3657 100.625 61.3741C100.671 61.3825 100.715 61.4001 100.753 61.4258C100.792 61.4515 100.826 61.4848 100.851 61.5238C100.877 61.5627 100.895 61.6064 100.903 61.6522L102.484 69.4161L106.062 71.3218C106.124 71.3549 106.174 71.4054 106.207 71.4669C106.239 71.5285 106.253 71.5983 106.246 71.6676C106.238 71.7367 106.211 71.802 106.167 71.8559C106.123 71.9097 106.065 71.9498 105.999 71.9711L103.5 72.7334C104.058 74.2791 106.027 80.3985 104.206 84.4357C103.444 86.1508 102.413 88.1694 101.143 90.4351C101.118 90.4863 101.082 90.5309 101.036 90.5653C100.991 90.5996 100.938 90.6227 100.882 90.6327Z" fill="#263238"/>
<path id="Vector_48" d="M46.1169 120.044L44.6206 124.603L52.9844 128.04L54.029 123.41L46.1169 120.044Z" fill="white"/>
<path id="Vector_49" d="M52.9851 128.393C52.941 128.404 52.8951 128.404 52.851 128.393L44.4872 124.963C44.4049 124.928 44.3383 124.865 44.3005 124.784C44.2627 124.703 44.2563 124.611 44.2825 124.525L45.7788 119.959C45.7941 119.912 45.819 119.869 45.8518 119.833C45.8846 119.796 45.9246 119.767 45.9694 119.747C46.0135 119.726 46.0617 119.716 46.1105 119.716C46.1593 119.716 46.2075 119.726 46.2517 119.747L54.1638 123.114C54.24 123.146 54.3026 123.204 54.3412 123.277C54.3798 123.351 54.3919 123.435 54.3755 123.516L53.3239 128.146C53.3142 128.196 53.2933 128.243 53.2627 128.283C53.2321 128.324 53.1927 128.356 53.1474 128.379C53.0954 128.398 53.0395 128.402 52.9851 128.393ZM45.0589 124.405L52.731 127.553L53.6203 123.622L46.3293 120.545L45.0589 124.405Z" fill="#263238"/>
<path id="Vector_50" d="M41.2336 132.247L38.8833 136.75L40.3796 137.534L41.763 134.887L52.3924 140.441L51.0091 143.088L52.5124 143.872L54.8628 139.376L41.2336 132.247Z" fill="#263238"/>
<path id="Vector_51" d="M52.5127 144.224C52.4568 144.224 52.4016 144.212 52.3504 144.189L50.847 143.399C50.7652 143.355 50.7037 143.281 50.676 143.193C50.6482 143.104 50.6564 143.008 50.6988 142.926L51.9199 140.59L41.9115 135.367L40.6975 137.703C40.652 137.786 40.5763 137.85 40.4858 137.879C40.3997 137.914 40.3037 137.914 40.2176 137.879L38.7142 137.096C38.6336 137.051 38.5734 136.977 38.5458 136.889C38.5182 136.801 38.5254 136.706 38.566 136.623L40.9163 132.12C40.9619 132.036 41.0376 131.973 41.1281 131.943C41.2146 131.912 41.3097 131.912 41.3963 131.943L55.0042 139.058C55.0457 139.08 55.0825 139.109 55.1124 139.145C55.1424 139.181 55.1649 139.222 55.1787 139.267C55.1925 139.312 55.1972 139.359 55.1927 139.405C55.1882 139.452 55.1746 139.497 55.1525 139.538L52.8021 144.034C52.7594 144.117 52.686 144.18 52.5974 144.21L52.5127 144.224ZM51.4752 142.94L52.3504 143.399L54.3761 139.524L41.368 132.727L39.3424 136.602L40.2176 137.054L41.4386 134.724C41.4595 134.683 41.4884 134.647 41.5236 134.617C41.5589 134.587 41.5997 134.564 41.6438 134.55C41.6879 134.537 41.7343 134.532 41.7803 134.536C41.8262 134.541 41.8709 134.554 41.9115 134.576L52.541 140.131C52.5829 140.151 52.6201 140.18 52.6505 140.215C52.6808 140.25 52.7036 140.291 52.7174 140.336C52.7527 140.421 52.7527 140.518 52.7174 140.604L51.4752 142.94Z" fill="#263238"/>
<path id="Vector_52" d="M65.7961 150.418L25.9363 129.589C23.86 128.504 21.2972 129.308 20.2122 131.384L4.77648 160.922C3.69146 162.999 4.49507 165.561 6.5714 166.646L46.4312 187.476C48.5075 188.561 51.0703 187.757 52.1553 185.681L67.591 156.143C68.676 154.066 67.8724 151.503 65.7961 150.418Z" fill="#A3A3A3"/>
<path id="Vector_53" d="M48.3773 188.302C47.6398 188.3 46.9137 188.121 46.2598 187.78L6.40292 166.944C5.32311 166.381 4.51134 165.411 4.14605 164.249C3.78076 163.087 3.89185 161.828 4.45489 160.747L19.8979 131.209C20.177 130.675 20.5588 130.2 21.0214 129.813C21.484 129.426 22.0184 129.134 22.594 128.954C23.1695 128.774 23.775 128.709 24.3758 128.763C24.9765 128.817 25.5607 128.988 26.0949 129.268L65.9589 150.097C67.038 150.663 67.8484 151.634 68.2122 152.798C68.5761 153.961 68.4638 155.221 67.8999 156.301L52.4639 185.839C52.0717 186.581 51.4847 187.203 50.766 187.637C50.0472 188.071 49.2239 188.301 48.3843 188.302H48.3773ZM23.9493 129.466C23.2387 129.465 22.5412 129.658 21.9328 130.025C21.3243 130.392 20.828 130.919 20.4979 131.548L5.06189 161.086C4.58499 162.001 4.4903 163.067 4.79859 164.052C5.10687 165.036 5.79297 165.858 6.70642 166.337L46.5704 187.166C47.0224 187.404 47.517 187.55 48.0257 187.596C48.5343 187.642 49.0471 187.587 49.5345 187.434C50.0218 187.281 50.4742 187.034 50.8655 186.705C51.2568 186.377 51.5793 185.975 51.8145 185.521L67.2506 155.983C67.7271 155.07 67.8216 154.004 67.5133 153.021C67.205 152.038 66.519 151.217 65.606 150.739L25.7491 129.904C25.1926 129.617 24.5755 129.467 23.9493 129.466Z" fill="#263238"/>
<path id="Vector_54" d="M52.9865 128.04L54.6239 133.687C54.6239 133.687 54.3275 136.821 54.3275 137.717C54.3275 138.613 56.2685 140.703 55.2239 141.154C54.1793 141.606 53.1065 141.747 52.683 140.858C52.3323 140.081 52.0329 139.281 51.7866 138.465L50.4456 142.644C49.3549 142.251 48.3053 141.752 47.3118 141.154C46.5636 140.554 46.7118 138.169 46.7118 138.169C46.7118 138.169 42.0817 136.051 41.6371 135.183C41.1924 134.315 41.6371 131.294 41.6371 131.294L44.6226 124.575L52.9865 128.04Z" fill="white"/>
<path id="Vector_55" d="M50.445 143.025H50.318C49.1912 142.62 48.1082 142.102 47.0854 141.479C46.3796 140.886 46.3231 139.157 46.3796 138.437C45.2503 137.922 41.7918 136.277 41.3472 135.388C40.9025 134.499 41.2695 131.612 41.3119 131.294C41.3088 131.264 41.3088 131.233 41.3119 131.202L44.2974 124.483C44.3347 124.399 44.4036 124.332 44.4894 124.298C44.5751 124.263 44.6709 124.264 44.7562 124.3L53.12 127.737C53.1686 127.757 53.2121 127.788 53.2475 127.827C53.2828 127.866 53.3092 127.912 53.3247 127.963L54.9622 133.609C54.973 133.653 54.973 133.699 54.9622 133.743C54.9622 133.743 54.6658 136.87 54.6658 137.738C54.7713 138.172 54.9503 138.585 55.1951 138.959C55.6186 139.729 56.0138 140.448 55.8233 141.006C55.7847 141.118 55.7225 141.22 55.6409 141.305C55.5593 141.39 55.4602 141.457 55.3504 141.5C53.4729 142.305 52.6824 141.691 52.3578 141.034C52.1352 140.576 51.9419 140.105 51.779 139.623L50.7697 142.785C50.7544 142.829 50.7302 142.871 50.6987 142.906C50.6672 142.941 50.6289 142.969 50.5862 142.989C50.5426 143.012 50.4942 143.024 50.445 143.025ZM41.9753 131.428C41.813 132.543 41.6648 134.477 41.9753 135.049C42.2859 135.621 44.6645 136.87 46.916 137.872C46.9806 137.903 47.0346 137.952 47.0711 138.014C47.1076 138.076 47.1248 138.147 47.1207 138.218C47.0642 139.136 47.1701 140.576 47.5865 140.907C48.438 141.434 49.3415 141.872 50.2827 142.213L51.5108 138.388C51.5369 138.318 51.583 138.257 51.6432 138.213C51.7034 138.169 51.7751 138.144 51.8496 138.141C51.925 138.141 51.9983 138.166 52.0582 138.212C52.118 138.258 52.1613 138.322 52.1813 138.395C52.4214 139.189 52.7138 139.968 53.0565 140.724C53.1624 140.936 53.48 141.571 55.1739 140.858C55.2445 140.858 55.2586 140.801 55.2586 140.78C55.3504 140.526 54.9481 139.792 54.6869 139.305C54.3692 138.836 54.1572 138.304 54.0658 137.745C54.0658 136.905 54.3128 134.216 54.3623 133.75L52.6895 128.309L44.8056 125.069L41.9753 131.428Z" fill="#263238"/>
<path id="Vector_56" d="M105.166 57.0927L103.197 58.8289L110.142 76.5518L117.116 69.0208C117.116 69.0208 109.684 58.1302 105.166 57.0927Z" fill="white"/>
<path id="Vector_57" d="M110.141 76.9046H110.056C109.997 76.8938 109.943 76.868 109.897 76.8296C109.851 76.7913 109.816 76.7417 109.795 76.6858L102.843 58.963C102.816 58.895 102.812 58.8205 102.829 58.7497C102.847 58.6789 102.886 58.6153 102.942 58.5678L104.911 56.8315C104.954 56.7964 105.004 56.7712 105.057 56.7578C105.111 56.7443 105.167 56.743 105.221 56.7538C109.823 57.8125 117.058 68.3785 117.361 68.8302C117.413 68.8914 117.441 68.9689 117.441 69.049C117.441 69.1291 117.413 69.2066 117.361 69.2678L110.402 76.7846C110.369 76.8215 110.329 76.8512 110.284 76.8718C110.239 76.8925 110.19 76.9036 110.141 76.9046ZM103.612 58.9277L110.268 75.8671L116.62 68.9643C115.54 67.4186 109.223 58.5819 105.235 57.4526L103.612 58.9277Z" fill="#263238"/>
<path id="Vector_58" d="M121.349 69.1409L124.709 74.5826C124.709 74.5826 124.363 68.2304 123.085 63.812L121.349 69.1409Z" fill="white"/>
<path id="Vector_59" d="M124.737 74.9353C124.678 74.9351 124.619 74.9194 124.567 74.8897C124.515 74.86 124.471 74.8174 124.441 74.7659L121.081 69.3241C121.053 69.2807 121.035 69.2314 121.029 69.18C121.023 69.1286 121.029 69.0765 121.046 69.0277L122.782 63.6989C122.799 63.6241 122.843 63.5582 122.906 63.5139C122.968 63.4696 123.045 63.45 123.121 63.4589C123.197 63.4592 123.27 63.4843 123.33 63.5302C123.39 63.576 123.433 63.6402 123.453 63.713C124.723 68.1031 125.09 74.4977 125.09 74.5612C125.094 74.64 125.072 74.7179 125.028 74.7829C124.983 74.848 124.918 74.8965 124.843 74.9212L124.737 74.9353ZM121.766 69.0912L124.279 73.1708C124.068 70.4429 123.667 67.7331 123.079 65.0611L121.766 69.0912Z" fill="#263238"/>
<path id="Vector_60" d="M117.207 77.2434C117.207 77.2434 116.099 79.3609 110.269 78.4715C104.439 77.5822 97.4869 70.0372 91.9181 69.169C86.3493 68.3009 77.1526 74.2508 69.9534 72.8886C65.0693 71.8365 60.3512 70.1245 55.929 67.7997L44.269 74.6249C44.269 74.6249 55.682 79.7138 56.8042 79.8338C57.9264 79.9537 72.8048 81.8241 77.3996 79.9608C81.9944 78.0975 88.1914 73.6085 92.9274 75.246C97.6634 76.8835 103.232 83.8074 108.935 83.0663C114.638 82.3252 117.207 77.2434 117.207 77.2434Z" fill="#263238"/>
<path id="Vector_61" d="M108.024 83.4757C104.664 83.4757 101.46 81.1677 98.3545 78.9373C96.3782 77.5257 94.5078 76.1706 92.7786 75.5777C89.3907 74.4202 85.0782 76.594 81.2669 78.5138C79.94 79.2197 78.6836 79.8125 77.519 80.2854C73.4959 81.9158 61.836 80.7795 57.0012 80.2148H56.7471C55.6108 80.0878 45.2848 75.5001 44.1132 74.9778C44.0528 74.9524 44.0008 74.9104 43.9633 74.8567C43.9258 74.803 43.9044 74.7397 43.9014 74.6743C43.8963 74.6089 43.9102 74.5434 43.9415 74.4857C43.9728 74.4281 44.0202 74.3808 44.0779 74.3496L55.7096 67.4962C55.7624 67.4665 55.8219 67.4509 55.8825 67.4509C55.9431 67.4509 56.0026 67.4665 56.0554 67.4962C60.4577 69.7962 65.1484 71.4959 70.0022 72.5498C73.8065 73.2556 78.1543 71.9075 82.3609 70.5876C85.9323 69.4725 89.3131 68.4137 91.9528 68.8231C94.776 69.2607 97.8322 71.2934 101.051 73.4462C104.269 75.5989 107.438 77.681 110.318 78.1327C115.76 78.9444 116.889 77.1022 116.903 77.0811C116.951 77.0053 117.025 76.9503 117.111 76.9273C117.198 76.9042 117.29 76.9149 117.368 76.957C117.447 76.9991 117.507 77.0696 117.536 77.1542C117.565 77.2388 117.561 77.3312 117.524 77.4128C117.411 77.6245 114.772 82.6569 108.949 83.4192C108.642 83.4588 108.333 83.4777 108.024 83.4757ZM90.7106 74.5472C91.4926 74.5412 92.2702 74.6653 93.0115 74.9142C94.8396 75.5353 96.7452 76.9117 98.7638 78.3586C102.046 80.723 105.434 83.1581 108.857 82.7134C111.644 82.2921 114.16 80.8102 115.88 78.5774C114.786 78.9797 113.021 79.2408 110.233 78.8244C107.198 78.3656 103.881 76.1564 100.684 74.0249C97.6628 72.0134 94.5431 69.9312 91.8681 69.5148C89.3837 69.1266 86.0875 70.1641 82.5938 71.2581C78.3025 72.5992 73.87 73.9896 69.8893 73.2344C65.0363 72.188 60.3455 70.4955 55.9425 68.202L45.0378 74.5543C49.6044 76.5799 56.0978 79.3749 56.8389 79.4949H57.1C61.8784 80.0525 73.3971 81.1818 77.265 79.6149C78.4084 79.1491 79.6506 78.5209 80.9634 77.8645C84.0901 76.2976 87.5697 74.5472 90.7106 74.5472Z" fill="#263238"/>
</g>
</svg>
